<?xml version="1.0" encoding="utf-8"?>
<!-- Generator: Adobe Illustrator 25.3.1, SVG Export Plug-In . SVG Version: 6.00 Build 0)  -->
<svg version="1.1" id="Capa_1" xmlns="http://www.w3.org/2000/svg" xmlns:xlink="http://www.w3.org/1999/xlink" x="0px" y="0px"
	 viewBox="0 0 376.05 169.9" style="enable-background:new 0 0 376.05 169.9;" xml:space="preserve">
<style type="text/css">
	.st0{fill:#0BB2B1;}
	.st1{fill:none;stroke:#FFFFFF;stroke-width:4;stroke-linecap:round;stroke-linejoin:round;stroke-miterlimit:10;}
	.st2{fill:#FFFFFF;stroke:#FFFFFF;stroke-miterlimit:10;}
	.st3{fill:none;}
	.st4{fill:#FFFFFF;stroke:#FFFFFF;stroke-width:0.4;stroke-linecap:round;stroke-linejoin:round;stroke-miterlimit:10;}
	.st5{font-family:'Poppins-Bold';}
	.st6{font-size:40px;}
</style>
<path class="st0" d="M353.01,165.9H26.56c-7.46,0-13.5-6.04-13.5-13.5V21.81c0-7.46,6.04-13.5,13.5-13.5h326.45
	c7.46,0,13.5,6.04,13.5,13.5V152.4C366.51,159.86,360.47,165.9,353.01,165.9z"/>
<g>
	<path class="st1" d="M214.07,98.92c-1.57,0.65-4.04,1.93-5.87,4.39c-0.75,1-1.25,2.05-1.6,3.04c-0.66,1.91-6.94,22.83-11.35,36.88
		c-0.34,1.09-0.67,2.14-0.99,3.14"/>
	<polyline class="st1" points="184.51,149.33 181.68,148.41 156.22,140.19 158.28,133.8 	"/>
	<path class="st2" d="M194.64,145.14c-0.53-0.34-1.11-0.62-1.73-0.82c-3.86-1.25-8.01,0.87-9.26,4.74
		c-1.25,3.86,0.87,8.01,4.73,9.26c3.87,1.25,8.01-0.87,9.26-4.74C198.69,150.33,197.37,146.9,194.64,145.14z M189.37,155.26
		c-2.18-0.7-3.37-3.04-2.67-5.22c0.7-2.18,3.04-3.38,5.22-2.67c0.66,0.21,1.23,0.58,1.69,1.04c1.04,1.06,1.48,2.66,0.98,4.18
		C193.89,154.77,191.55,155.96,189.37,155.26z"/>
	
		<rect x="166.85" y="113.36" transform="matrix(0.9515 0.3075 -0.3075 0.9515 47.6614 -49.2483)" class="st1" width="26.49" height="26.49"/>
	<polyline class="st2" points="181.69,113.61 179.23,121.22 182.25,119.68 183.89,122.89 186.4,115.13 	"/>
	<path class="st2" d="M209.2,102.29l-0.21-0.3c-0.76-1.08-0.5-2.56,0.57-3.32l6.3-4.44c1.08-0.76,2.56-0.5,3.32,0.57l0.21,0.3
		c0.76,1.08,0.5,2.56-0.57,3.32l-6.3,4.44C211.45,103.62,209.96,103.36,209.2,102.29z"/>
</g>
<g>
	<rect x="76.97" y="21.91" class="st3" width="222.1" height="65.19"/>
	<text transform="matrix(1 0 0 1 115.545 51.5138)"><tspan x="0" y="0" class="st4 st5 st6">Alta de  </tspan><tspan x="-37.06" y="33" class="st4 st5 st6">elementos</tspan></text>
</g>
</svg>
