<?xml version="1.0" standalone="no"?>
<!DOCTYPE svg PUBLIC "-//W3C//DTD SVG 20010904//EN"
 "http://www.w3.org/TR/2001/REC-SVG-20010904/DTD/svg10.dtd">
<svg version="1.0" xmlns="http://www.w3.org/2000/svg"
 width="512.000000pt" height="512.000000pt" viewBox="0 0 512.000000 512.000000"
 preserveAspectRatio="xMidYMid meet">

<g transform="translate(0.000000,512.000000) scale(0.100000,-0.100000)"
fill="#000000" stroke="none">
<path d="M37 3673 c24 -2 62 -2 85 0 24 2 5 4 -42 4 -47 0 -66 -2 -43 -4z"/>
<path d="M3838 3673 c23 -2 61 -2 85 0 23 2 4 4 -43 4 -47 0 -66 -2 -42 -4z"/>
<path d="M0 2762 c0 -980 -2 -946 68 -1024 20 -23 57 -51 82 -62 44 -21 56
-21 943 -24 l897 -3 -2 -162 -3 -162 -390 -5 -390 -5 -215 -109 c-118 -59
-227 -117 -242 -128 -100 -70 -108 -241 -16 -324 12 -12 128 -74 255 -138
l233 -116 380 0 380 0 0 -250 0 -250 1240 0 1240 0 0 250 0 250 153 0 c216 0
294 26 392 131 151 162 147 408 -10 565 -97 97 -182 124 -392 124 l-143 0 0
618 c0 340 -3 822 -7 1070 l-6 452 -244 0 -243 0 0 90 0 90 -80 0 -80 0 0 -90
0 -90 -905 0 -905 0 -2 -822 -3 -823 -873 -3 c-953 -2 -920 -4 -942 54 -6 15
-10 367 -10 900 l0 874 -80 0 -80 0 0 -878z m4300 -447 l0 -995 -1080 0 -1080
0 0 995 0 995 1080 0 1080 0 0 -995z m-170 -1240 l0 -85 -1405 0 -1405 0 0 85
0 85 1405 0 1405 0 0 -85z m330 -165 l0 -250 -85 0 -85 0 0 250 0 250 85 0 85
0 0 -250z m355 223 c46 -24 96 -74 118 -118 57 -115 6 -266 -112 -327 -44 -23
-66 -28 -127 -28 l-74 0 0 251 0 252 78 -5 c51 -3 90 -12 117 -25z m-3659
-420 c-7 -8 -301 144 -320 166 -36 40 -12 63 161 150 l158 79 3 -196 c1 -107
1 -197 -2 -199z m2974 32 l0 -85 -1405 0 -1405 0 0 85 0 85 1405 0 1405 0 0
-85z m168 -412 l-3 -168 -1075 0 -1075 0 -3 155 c-1 85 0 160 2 167 4 11 211
13 1081 13 l1075 0 -2 -167z"/>
<path d="M2320 3055 l0 -75 900 0 900 0 0 75 0 75 -900 0 -900 0 0 -75z"/>
<path d="M2320 2725 l0 -75 75 0 75 0 0 75 0 75 -75 0 -75 0 0 -75z"/>
<path d="M2650 2725 l0 -75 735 0 735 0 0 75 0 75 -735 0 -735 0 0 -75z"/>
<path d="M2320 2395 l0 -75 906 0 905 0 -3 73 -3 72 -903 3 -902 2 0 -75z"/>
<path d="M2320 2065 l0 -75 905 0 905 0 0 75 0 75 -905 0 -905 0 0 -75z"/>
<path d="M2320 1730 l0 -80 738 2 737 3 3 78 3 77 -741 0 -740 0 0 -80z"/>
<path d="M3970 1730 l0 -81 78 3 77 3 3 78 3 77 -81 0 -80 0 0 -80z"/>
<path d="M330 2395 l0 -75 495 0 495 0 0 75 0 75 -495 0 -495 0 0 -75z"/>
<path d="M330 2065 l0 -75 330 0 330 0 0 75 0 75 -330 0 -330 0 0 -75z"/>
<path d="M1160 2065 l0 -75 80 0 80 0 0 75 0 75 -80 0 -80 0 0 -75z"/>
</g>
</svg>
