<?xml version="1.0" standalone="no"?>
<!DOCTYPE svg PUBLIC "-//W3C//DTD SVG 20010904//EN"
 "http://www.w3.org/TR/2001/REC-SVG-20010904/DTD/svg10.dtd">
<svg version="1.0" xmlns="http://www.w3.org/2000/svg"
 width="512.000000pt" height="512.000000pt" viewBox="0 0 512.000000 512.000000"
 preserveAspectRatio="xMidYMid meet">

<g transform="translate(0.000000,512.000000) scale(0.100000,-0.100000)"
fill="#000000" stroke="none">
<path d="M37 3673 c24 -2 62 -2 85 0 24 2 5 4 -42 4 -47 0 -66 -2 -43 -4z"/>
<path d="M378 3673 c23 -2 59 -2 80 0 20 2 1 4 -43 4 -44 0 -61 -2 -37 -4z"/>
<path d="M753 3673 c43 -2 110 -2 150 0 40 1 5 3 -78 3 -82 0 -115 -2 -72 -3z"/>
<path d="M1698 3673 c23 -2 59 -2 80 0 20 2 1 4 -43 4 -44 0 -61 -2 -37 -4z"/>
<path d="M3778 3673 c23 -2 59 -2 80 0 20 2 1 4 -43 4 -44 0 -61 -2 -37 -4z"/>
<path d="M4128 3673 c23 -2 61 -2 85 0 23 2 4 4 -43 4 -47 0 -66 -2 -42 -4z"/>
<path d="M0 3225 l0 -415 456 0 456 0 -7 -37 c-24 -132 -226 -1038 -232 -1044
-5 -3 -24 -12 -43 -18 -48 -15 -105 -64 -134 -114 -30 -52 -76 -229 -76 -294
0 -26 5 -64 10 -84 15 -52 81 -123 137 -146 29 -13 455 -96 1064 -208 l1015
-188 16 -76 c34 -164 106 -291 226 -402 138 -127 306 -193 497 -193 132 0 228
24 349 87 113 58 245 190 303 302 99 193 113 394 42 600 l-31 90 206 909 206
909 -132 258 -132 258 18 92 c10 51 21 101 24 111 4 16 -3 18 -75 18 l-79 0
-250 -1091 -249 -1090 -35 6 c-19 3 -59 8 -87 12 -41 4 -53 10 -53 23 0 9 106
488 235 1065 129 577 235 1055 235 1062 0 11 -17 13 -77 11 l-77 -3 -55 -245
c-30 -135 -56 -246 -57 -248 -2 -3 -1749 343 -1786 354 -15 4 -18 17 -18 75
l0 69 -75 0 -75 0 0 -335 0 -335 -750 0 -750 0 0 335 0 335 -80 0 -80 0 0
-415z m1945 89 c50 -9 91 -18 92 -19 2 -1 -31 -120 -73 -264 -41 -145 -73
-268 -71 -274 4 -13 959 -208 968 -199 4 4 40 123 80 265 40 141 75 261 78
266 5 7 548 -93 558 -103 2 -2 -334 -1495 -341 -1512 -2 -6 -22 -15 -43 -19
-56 -10 -179 -69 -239 -115 l-52 -39 -1029 205 c-565 113 -1029 207 -1031 209
-2 2 50 249 115 549 l118 546 368 0 367 0 0 266 0 266 23 -5 c12 -3 63 -13
112 -23z m380 -75 c61 -12 114 -25 118 -29 8 -7 -94 -374 -107 -387 -6 -6
-222 35 -242 46 -8 4 4 58 36 171 26 91 50 177 54 193 3 15 12 27 19 27 6 0
62 -10 122 -21z m413 -83 c62 -13 115 -26 119 -29 11 -12 -101 -387 -116 -387
-41 0 -241 45 -241 54 -1 28 106 386 115 386 6 -1 61 -11 123 -24z m1542 -338
c-10 -50 -17 -68 -29 -68 -26 0 -185 32 -193 39 -6 5 62 332 79 381 3 9 36
-47 80 -135 l75 -149 -12 -68z m-147 -207 c48 -10 89 -20 91 -22 4 -5 -130
-588 -137 -595 -6 -6 -194 30 -203 39 -3 3 25 139 62 301 54 236 71 296 83
296 9 -1 56 -9 104 -19z m-171 -758 c59 -11 88 -21 88 -31 0 -15 -122 -555
-127 -561 -1 -2 -24 14 -50 36 -27 21 -69 54 -95 71 -26 18 -45 38 -43 45 2 6
25 104 50 217 57 254 53 240 72 240 9 0 56 -8 105 -17z m-2207 -485 c556 -110
1012 -202 1013 -204 2 -1 -16 -42 -40 -91 -24 -48 -50 -117 -58 -153 -7 -36
-16 -69 -20 -73 -7 -9 -2002 358 -2031 374 -45 24 -49 70 -17 197 25 100 64
152 115 152 15 0 483 -91 1038 -202z m1775 -63 c281 -75 470 -352 430 -632
-32 -226 -184 -411 -393 -479 -317 -103 -659 83 -742 403 -19 73 -19 222 0
293 52 195 217 361 411 415 66 18 226 18 294 0z"/>
<path d="M3275 1136 c-181 -57 -295 -208 -295 -390 0 -163 85 -301 227 -368
298 -142 624 97 581 426 -20 152 -127 276 -284 330 -56 19 -172 20 -229 2z
m200 -160 c97 -41 159 -132 158 -235 -3 -268 -363 -341 -474 -96 -24 53 -24
147 0 200 23 52 74 103 126 126 49 23 142 25 190 5z"/>
<path d="M340 3553 c0 -49 -3 -161 -7 -250 l-6 -163 497 0 496 0 0 245 0 245
-80 0 -80 0 0 -165 0 -165 -335 0 -335 0 0 170 0 170 -75 0 -75 0 0 -87z"/>
<path d="M772 3583 l57 -57 32 29 c17 17 40 42 51 58 l19 27 -108 0 -108 0 57
-57z"/>
</g>
</svg>
