<?xml version="1.0" encoding="utf-8"?>
<!-- Generator: Adobe Illustrator 25.3.1, SVG Export Plug-In . SVG Version: 6.00 Build 0)  -->
<svg version="1.1" id="Capa_1" xmlns="http://www.w3.org/2000/svg" xmlns:xlink="http://www.w3.org/1999/xlink" x="0px" y="0px"
	 viewBox="0 0 376.05 169.9" style="enable-background:new 0 0 376.05 169.9;" xml:space="preserve">
<style type="text/css">
	.st0{fill:#0BB2B1;}
	.st1{fill:none;stroke:#FFFFFF;stroke-width:3;stroke-linecap:round;stroke-linejoin:round;stroke-miterlimit:10;}
	.st2{fill:#FFFFFF;stroke:#FFFFFF;stroke-miterlimit:10;}
	.st3{fill:#FFFFFF;}
	.st4{fill:none;}
	.st5{fill:#FFFFFF;stroke:#FFFFFF;stroke-width:0.4;stroke-linecap:round;stroke-linejoin:round;stroke-miterlimit:10;}
	.st6{font-family:'Poppins-Bold';}
	.st7{font-size:40px;}
</style>
<path class="st0" d="M353.01,165.9H26.56c-7.46,0-13.5-6.04-13.5-13.5V21.81c0-7.46,6.04-13.5,13.5-13.5h326.45
	c7.46,0,13.5,6.04,13.5,13.5V152.4C366.51,159.86,360.47,165.9,353.01,165.9z"/>
<g>
	<g>
		<path class="st1" d="M198.71,150.99h-21.38c-5.63,0-10.2-4.57-10.2-10.2v-34.98c0-5.63,4.57-10.2,10.2-10.2h21.38
			c5.63,0,10.2,4.57,10.2,10.2v34.98C208.91,146.43,204.35,150.99,198.71,150.99z"/>
		<path class="st2" d="M199.42,107.75h-22.8c-1.3,0-2.35,1.05-2.35,2.35l0,0c0,1.3,1.05,2.35,2.35,2.35h22.8
			c1.3,0,2.35-1.05,2.35-2.35l0,0C201.78,108.8,200.72,107.75,199.42,107.75z"/>
		<path class="st1" d="M183.43,118.84c-2.09,1.83-4.19,3.65-6.28,5.48c-0.84-1.08-1.67-2.16-2.51-3.24"/>
		<path class="st1" d="M183.43,128.11c-2.09,1.83-4.19,3.65-6.28,5.48c-0.84-1.08-1.67-2.16-2.51-3.24"/>
		<path class="st1" d="M183.43,137.38c-2.09,1.83-4.19,3.65-6.28,5.48c-0.84-1.08-1.67-2.16-2.51-3.24"/>
		<rect x="189.73" y="120.25" class="st1" width="10.25" height="0.39"/>
		<rect x="189.73" y="130.3" class="st1" width="10.25" height="0.39"/>
		<rect x="189.73" y="140.12" class="st1" width="10.25" height="0.39"/>
	</g>
	<path class="st3" d="M195.74,90.94h-4.96c-0.27-0.68-0.88-1.25-1.7-1.51c-1.45-0.46-3.05,0.22-3.57,1.51h-4.95
		c-1.69,0-3.07,1.22-3.07,2.73v2.67c0,1.5,1.37,2.73,3.07,2.73h15.18c1.69,0,3.07-1.22,3.07-2.73v-2.67
		C198.8,92.16,197.43,90.94,195.74,90.94z M188.15,93.61c-0.87,0-1.58-0.71-1.58-1.58c0-0.34,0.11-0.65,0.29-0.91
		c0.28-0.41,0.75-0.67,1.29-0.67s1.01,0.26,1.29,0.67c0.18,0.26,0.29,0.57,0.29,0.91C189.73,92.9,189.02,93.61,188.15,93.61z"/>
</g>
<rect x="80.75" y="42.81" class="st4" width="214.55" height="70.86"/>
<text transform="matrix(1 0 0 1 80.7478 72.4131)" class="st5 st6 st7">Inventario</text>
</svg>
